<svg width="20" height="20" viewBox="0 0 20 20" fill="none" xmlns="http://www.w3.org/2000/svg">
<g clip-path="url(#clip0_143_1733)">
<path fill-rule="evenodd" clip-rule="evenodd" d="M12.4892 16.5706C12.4604 16.5706 12.4317 16.5706 12.4029 16.5706C12.3741 16.5706 12.3453 16.5706 12.3166 16.5706C11.9425 16.5706 11.5683 16.513 11.223 16.4265C10.8489 16.3401 10.5036 16.196 10.1583 16.0231C9.43885 15.6772 8.80576 15.1585 8.23022 14.4957C7.16547 13.2277 6.56116 11.6138 6.53238 9.94237C6.53238 8.38618 7.05036 6.82998 8.11511 5.33142C8.69065 4.55333 9.32375 3.97696 10.0719 3.65995C10.5612 3.45822 11.0791 3.34295 11.6259 3.34295C11.8849 3.34295 12.1439 3.37177 12.4029 3.40059C14.3597 3.71759 15.9712 5.12969 16.5755 5.73488C17.6978 6.8588 18.3597 8.35736 18.3597 9.94237C18.3885 11.4698 17.813 12.9971 16.777 14.2363C15.5396 15.6772 13.9856 16.513 12.4892 16.5706ZM17.1799 14.6686C18.3309 13.3141 18.9353 11.6715 18.9065 10C18.8777 8.24209 18.1871 6.59943 16.9496 5.36024C16.3166 4.72624 14.5899 3.22768 12.4604 2.88186C12.1727 2.82422 11.8849 2.82422 11.5971 2.82422C10.964 2.82422 10.3597 2.93949 9.81295 3.17004C8.97842 3.51586 8.23022 4.14987 7.6259 5.04324C6.5036 6.62825 5.92806 8.29972 5.95684 10C5.98562 11.7868 6.61871 13.5447 7.79857 14.928C8.40288 15.6484 9.12231 16.2248 9.89929 16.6283C10.2734 16.83 10.6763 16.9741 11.0791 17.0605C11.5108 17.147 11.9137 17.2046 12.3166 17.2046C12.3741 17.2046 12.4604 17.2046 12.518 17.2046C14.1871 17.0893 15.8849 16.196 17.1799 14.6686Z" fill="#CF881A"/>
<path fill-rule="evenodd" clip-rule="evenodd" d="M16.1151 12.8241C15.7122 13.3716 15.2518 13.8327 14.7338 14.1785C14.2446 14.5244 13.7554 14.7261 13.2949 14.7549C13.2374 14.7549 13.1511 14.7549 13.0935 14.7549C12.6906 14.7549 12.2877 14.6396 11.8849 14.4091C11.3957 14.1497 10.9352 13.7174 10.5323 13.1699C9.8417 12.2189 9.43882 11.095 9.43882 9.94223C9.41004 8.93359 9.72659 7.83849 10.3597 6.59929C10.6475 6.08056 10.9352 5.6771 11.2805 5.44655C11.5108 5.27364 11.7985 5.15837 12.1151 5.15837C12.3453 5.15837 12.6331 5.21601 12.9208 5.33128C13.9856 5.73474 15.0216 6.71457 15.6259 7.29093H15.6546C15.6834 7.31975 15.7122 7.31975 15.7122 7.34857C15.741 7.37739 15.7698 7.40621 15.7698 7.40621C16.518 8.12667 16.9496 9.02004 16.9784 10.0287C17.0647 11.2391 16.5467 12.2189 16.1151 12.8241ZM16.2302 7.06039C16.2014 7.03157 16.1726 7.03157 16.1726 7.00275C16.1439 6.97393 16.1151 6.94511 16.0863 6.94511H16.0575C15.3669 6.28229 14.3309 5.27364 13.1511 4.87019C12.777 4.72609 12.4604 4.66846 12.1439 4.66846C11.741 4.66846 11.3093 4.81255 10.964 5.0431C10.5611 5.33128 10.187 5.79238 9.87048 6.39756C9.17983 7.72321 8.86328 8.90477 8.86328 10.0287C8.89206 11.3255 9.32371 12.5647 10.1007 13.5734C10.5323 14.1785 11.0791 14.6685 11.6259 14.9855C12.1151 15.2736 12.6043 15.4177 13.1223 15.4177C13.2086 15.4177 13.2949 15.4177 13.3813 15.4177C13.928 15.3601 14.5036 15.1296 15.0791 14.7549C15.6546 14.3803 16.1726 13.8327 16.6043 13.2564C17.0935 12.5647 17.669 11.4696 17.6115 10.144C17.5827 8.90477 17.0935 7.8673 16.2302 7.06039Z" fill="#CF881A"/>
<path fill-rule="evenodd" clip-rule="evenodd" d="M19.2518 11.7867C18.7625 14.2651 17.3525 16.3977 15.2518 17.8098C14.7625 18.1556 14.2158 18.4438 13.669 18.6744C12.4892 19.1643 11.2518 19.4236 10.0143 19.4236C8.40283 19.4236 6.79132 19.0202 5.38125 18.2133L5.3237 18.1556V18.098C5.41003 17.5216 5.49636 16.7435 5.38125 15.9654C5.26614 15.245 4.97837 14.611 4.66183 13.9481L4.63305 13.8905C4.34528 13.2565 4.02873 12.5648 3.91363 11.8444C3.76974 11.0086 3.88485 10.1441 4.23017 9.36599C4.48917 8.78963 4.89204 8.27089 5.23737 7.78098C5.58269 7.3487 5.95679 6.82997 6.21578 6.28242C6.41722 5.85014 6.56111 5.38905 6.70499 4.92795L6.73377 4.87032C6.87765 4.32277 7.05032 3.80403 7.30931 3.34294C7.97118 2.10375 9.23737 1.29683 10.4172 0.662824H10.446H10.4748C11.5971 0.720461 12.6618 0.951009 13.6978 1.38329C14.8201 1.84438 15.8273 2.53602 16.6906 3.40058C17.1223 3.83285 17.5251 4.32277 17.8417 4.78386C19.223 6.82997 19.7122 9.33718 19.2518 11.7867ZM4.77694 17.6657L4.74816 17.8098L4.63305 17.7233C4.17262 17.4063 3.76974 17.0605 3.33809 16.6571C3.1942 16.513 3.02154 16.3401 2.84888 16.1095L2.8201 16.0807V16.0519C2.90643 15.072 2.76255 14.0346 2.61866 13.1124C2.446 11.7579 2.24456 10.2594 2.70499 8.93372C2.90643 8.41499 3.1942 7.89625 3.48197 7.40634V7.37752C3.88485 6.7147 4.28773 6.02305 4.43161 5.21614C4.48917 4.8415 4.48917 4.46686 4.48917 4.0634V4.03458C4.48917 3.77522 4.48917 3.54467 4.48917 3.31412C4.48917 3.05476 4.5755 2.59366 4.71938 2.24784V2.21902L4.74816 2.1902C5.23737 1.8732 5.75535 1.58501 6.33089 1.32565C7.10787 0.979827 7.9424 0.778098 8.80571 0.662824L9.20859 0.605187L8.89204 0.835735C8.63305 1.00865 8.43161 1.15274 8.25895 1.26801C7.59708 1.81556 7.10787 2.36311 6.76255 2.99712C6.47478 3.51585 6.30211 4.09222 6.15823 4.63977C6.04312 5.04323 5.89924 5.53314 5.6978 5.96542C5.46758 6.45533 5.12226 6.91643 4.77694 7.37752C4.40283 7.86744 3.99996 8.41499 3.71219 9.04899C3.30931 9.94236 3.1942 10.9222 3.33809 11.8732C3.48197 12.6801 3.79852 13.4294 4.11506 14.0922C4.40283 14.7262 4.6906 15.3602 4.80571 16.0519C4.86327 16.513 4.86327 17.0605 4.77694 17.6657ZM2.0719 15.0432C0.92082 13.2565 0.402834 11.0951 0.63305 8.96254C0.863266 6.82997 1.81291 4.8415 3.33809 3.34294C3.48197 3.19885 3.62586 3.05475 3.76974 2.93948L3.97118 2.76657L3.9424 3.02594C3.9424 3.08357 3.91363 3.17003 3.91363 3.22767V3.25648C3.91363 3.51585 3.91363 3.77522 3.91363 4.03458C3.91363 4.43804 3.91363 4.81268 3.85607 5.1585C3.74096 5.85014 3.36686 6.45533 2.99276 7.11816L2.93521 7.20461C2.64744 7.69452 2.35967 8.18444 2.15823 8.73199C1.64024 10.2017 1.84168 11.7003 2.04312 13.17L2.0719 13.3141C2.15823 13.8617 2.21578 14.438 2.24456 14.9856L2.27334 15.3314L2.0719 15.0432ZM13.8992 0.778098C12.7769 0.288184 11.5971 0.0288184 10.3884 0H10.2733C10.2158 0 10.187 0 10.1295 0C10.0719 0 10.0431 0 9.98557 0C7.97118 0 6.04312 0.576369 4.40283 1.70029C2.18701 3.19885 0.690604 5.4755 0.172619 8.09798C-0.345367 10.7205 0.201396 13.3718 1.6978 15.5908C1.84168 15.7925 2.01435 16.0231 2.21578 16.2824L2.24456 16.3112L2.27334 16.3401C2.47478 16.5994 2.70499 16.8588 2.93521 17.0893C3.39564 17.5504 3.88485 17.9539 4.40283 18.2997C6.0719 19.4236 7.99996 20 9.98557 20C11.9712 20 13.928 19.3948 15.5683 18.2997C17.4964 17.0029 18.9352 15.072 19.5683 12.853C20.2302 10.634 20.0863 8.24208 19.1942 6.10951C18.187 3.68876 16.3165 1.81556 13.8992 0.778098Z" fill="#CF881A"/>
<path fill-rule="evenodd" clip-rule="evenodd" d="M13.5251 7.72334C13.928 7.72334 14.2733 7.95389 14.5611 8.32853C14.8777 8.76081 15.0503 9.33717 15.0791 9.94236C15.1079 10.5764 14.9352 11.1527 14.6474 11.585C14.3597 11.9885 14.0143 12.219 13.6402 12.219H13.6115C13.2374 12.219 12.892 11.9885 12.6043 11.6138C12.2589 11.2392 12.0863 10.6628 12.0863 10.0288C12.0863 9.39481 12.2302 8.81844 12.5179 8.38617C12.7769 7.98271 13.1223 7.75216 13.5251 7.72334ZM12 8.04034C11.6546 8.58789 11.4532 9.27954 11.482 10.0288C11.5107 10.7781 11.7122 11.4697 12.1151 11.9885C12.2877 12.2478 12.5179 12.4496 12.8057 12.5937C13.0359 12.7378 13.3237 12.7954 13.5827 12.8242H13.6402C13.9568 12.8242 14.2446 12.7089 14.4748 12.5648C14.7338 12.3919 14.9352 12.1902 15.1079 11.9308C15.4532 11.3833 15.6546 10.6916 15.6259 9.94236C15.5971 9.19308 15.3956 8.50144 14.9928 7.98271C14.8201 7.72334 14.5899 7.52161 14.3021 7.37752C14.1007 7.20461 13.8129 7.14697 13.5251 7.14697C13.2086 7.14697 12.892 7.23343 12.633 7.40634C12.4028 7.57925 12.1726 7.78098 12 8.04034Z" fill="#CF881A"/>
</g>
<defs>
<clipPath id="clip0_143_1733">
<rect width="20" height="20" fill="white"/>
</clipPath>
</defs>
</svg>
