<svg width="55" height="55" viewBox="0 0 55 55" fill="none" xmlns="http://www.w3.org/2000/svg">
<path d="M24.499 0.161243C26.7421 -0.0845517 29.0903 -0.0480186 31.3154 0.261829C27.1132 1.32972 23.4284 3.44742 20.5117 6.4923C17.106 9.74712 15.83 14.1744 14.5957 18.4562C14.3601 19.2731 14.1174 20.1186 13.8613 20.9484C13.467 22.2979 12.9697 23.6524 12.4883 24.961C11.6765 27.1736 10.8393 29.4631 10.4219 31.8702C9.58453 36.8817 11.2466 42.4672 14.7393 46.4288C17.2795 49.5121 20.9032 51.1387 24.4062 52.711L24.4092 52.7159C25.1056 53.0258 25.8226 53.3483 26.4883 53.6632C27.2181 54.0319 27.9169 54.4578 28.6416 54.9776C28.2627 54.993 27.8834 55.0001 27.502 55.0001C21.9325 55 16.7415 53.3336 12.4062 50.4757C11.5356 48.2733 10.3961 46.3114 9.29492 44.4112C8.50111 43.0438 7.68199 41.6297 6.99316 40.17C6.0355 38.1342 5.29076 35.7013 4.9502 33.4913C4.0975 28.1699 4.89128 26.2342 7.30859 21.4249C8.01024 20.0753 8.69614 18.6278 9.35938 17.2296C10.7242 14.3487 12.1379 11.3706 13.8535 8.85851C15.5513 6.47433 17.9434 4.83734 20.4785 3.10363C21.8177 2.18691 23.2034 1.23927 24.499 0.161243ZM35.2715 1.11437C46.6618 4.47425 55 15.0308 55 27.4972C54.9998 41.4973 44.4877 53.0855 30.9414 54.7833C29.6226 53.6847 28.4552 52.9003 27.1748 52.255C26.4757 51.9246 25.7505 51.5993 25.0488 51.2843C21.7098 49.7863 18.2557 48.2345 15.9307 45.4151C12.722 41.7761 11.2033 36.6852 11.9639 32.1319C12.3557 29.8707 13.1703 27.6477 13.959 25.4991C14.4481 24.1675 14.9522 22.7868 15.3594 21.4015C15.6154 20.5693 15.8615 19.7162 16.0996 18.8917C17.3313 14.6178 18.494 10.5772 21.6025 7.61437L21.6279 7.588C25.1362 3.92092 29.8562 1.69572 35.2695 1.15538V1.1173L35.2715 1.11437ZM47.7295 14.2316C45.3685 10.2724 40.9693 2.90455 34.1475 4.01085L34.1064 4.01866C29.1592 5.09173 25.9248 8.96636 23.6406 12.2443L23.6104 12.2901C20.0458 17.7037 19.3466 24.0751 18.7295 29.7013C18.394 33.033 18.1936 35.8145 18.9004 38.7364C19.9631 42.8747 22.9339 46.4368 27.0488 48.506C29.4124 49.6942 31.9352 50.296 34.3936 50.296C36.2449 50.296 38.0635 49.953 39.751 49.2667C44.8185 47.2333 47.8016 42.3573 50.4365 38.0577L50.6465 37.715C53.4838 33.0516 54.6212 28.6564 53.9375 25.0353C53.707 23.5578 52.9385 22.4182 52.1934 21.3146C52.0321 21.0764 51.8702 20.8329 51.7012 20.5743C50.4849 18.7562 49.2607 16.7999 47.7295 14.2316ZM34.4189 5.55187C39.7325 4.70429 43.3865 10.0006 46.3877 15.0353C47.9344 17.6268 49.1744 19.6062 50.3984 21.4347C50.5648 21.6932 50.734 21.9422 50.9004 22.1905C51.607 23.2377 52.2192 24.1416 52.3984 25.2989C53.1743 29.4194 51.148 33.8828 49.3145 36.8995L49.1045 37.2433C46.4747 41.5351 43.7555 45.9756 39.167 47.8194C35.6536 49.2535 31.4942 48.9947 27.7529 47.1124C24.0425 45.243 21.3664 42.0496 20.4189 38.3595C19.7737 35.686 19.9661 33.0407 20.2861 29.8653C20.8828 24.421 21.5609 18.2463 24.918 13.1476L24.9385 13.1144C27.0382 10.0977 30.0143 6.51549 34.416 5.54991L34.4189 5.55187ZM19.5898 1.81359C17.0548 3.54722 14.4322 5.33923 12.5654 7.96398C10.7729 10.5914 9.33446 13.6269 7.94141 16.5616C7.25519 18.0109 6.60405 19.3779 5.91016 20.712C3.43135 25.6468 2.46318 27.883 3.40039 33.7345C3.76914 36.1135 4.54065 38.6362 5.5752 40.836L5.57715 40.838C6.29416 42.3566 7.13221 43.8017 7.94141 45.1974C8.56871 46.2779 9.20602 47.3794 9.79492 48.5265C3.80794 43.4765 0.000101719 35.9243 0 27.4991C0 14.5207 9.03678 3.61083 21.1465 0.737415C20.6267 1.10358 20.1045 1.46022 19.5898 1.81359ZM43.9629 16.0362C40.7747 11.8543 37.4043 9.90806 33.9473 10.2589L33.8271 10.2765C31.4611 10.7247 29.4385 13.1607 28.1709 15.1095C24.906 19.8572 23.1492 28.5149 24.542 32.9581C25.3998 36.7405 28.107 41.3682 32.2324 43.212C33.359 43.7138 34.5109 43.9649 35.6631 43.965C37.0996 43.965 38.539 43.5735 39.9346 42.795C42.9614 41.0459 44.7313 38.695 46.4316 36.4337C49.4685 32.5951 50.4263 28.2057 49.0693 24.4132C48.1833 21.6346 46.0883 18.7405 43.9629 16.0362ZM34.124 11.8136C36.9972 11.5345 39.8889 13.2758 42.7236 16.9943C44.7671 19.5909 46.7665 22.3466 47.5859 24.9151C48.1442 26.4748 49.0308 30.6285 45.1924 35.4786C43.5023 37.7271 41.9037 39.853 39.1611 41.4357C37.0768 42.6007 34.9586 42.718 32.8691 41.7833C29.7631 40.3952 26.9641 36.6128 26.0576 32.5821L26.04 32.5157C24.7699 28.5311 26.4625 20.3491 29.4688 15.9776C31.0385 13.5679 32.6852 12.0896 34.1064 11.8155V11.8136H34.124ZM35.6992 16.2101L35.6201 16.2179C33.3462 16.4279 31.8069 19.1098 31.1309 21.5196C30.0836 24.7847 30.1933 29.2815 31.3789 32.1905C32.0831 34.1111 33.7325 36.6461 36.0703 37.4708C36.5671 37.6449 37.0717 37.7325 37.5762 37.7325C38.4212 37.7325 39.2637 37.4886 40.0703 37.0021C41.9959 35.819 43.1868 34.4057 44.1777 32.1114C45.9933 27.8399 44.8825 22.6945 41.4307 19.3243C40.3193 18.1668 38.2523 16.018 35.6992 16.2101ZM35.835 17.7648C37.4994 17.647 39.0157 19.0657 40.3242 20.423C43.3357 23.3629 44.3088 27.8139 42.7441 31.4913C41.8837 33.4836 40.9057 34.6542 39.2617 35.6632C38.3656 36.2034 37.4924 36.3106 36.5938 35.9933C34.8857 35.3915 33.4816 33.3783 32.8389 31.6241L32.8418 31.6222C31.7868 29.0357 31.6921 24.8946 32.6318 21.965C33.1901 19.97 34.3783 17.9002 35.7842 17.7696L35.835 17.7648Z" fill="#231F20"/>
</svg>
