<svg width="250" height="250" viewBox="0 0 250 250" fill="none" xmlns="http://www.w3.org/2000/svg">
<rect width="250" height="250" fill="white"/>
<path fill-rule="evenodd" clip-rule="evenodd" d="M171.825 88.9793L172.038 89.1922L172.298 89.3439C181.179 94.5244 196.851 110.496 189.866 133.197C182.727 156.397 166.273 161.81 159.507 161.81C151.426 161.81 132.827 154.829 129.235 124.3C127.435 109.004 131.199 98.9889 136.353 92.6406C141.494 86.3077 148.18 83.4217 152.706 82.6792C163.17 82.7293 169.954 87.108 171.825 88.9793Z" fill="#AC583C"/>
<path d="M179.621 136.044C178.266 138.183 176.481 141.23 175.108 142.259C173.763 143.268 172.67 143.501 171.708 143.26C168.062 142.349 165.589 139.629 163.695 135.031C161.777 130.372 160.647 124.24 159.475 117.207C158.526 111.511 158.801 108.162 159.475 105.144C159.957 102.986 161.466 98.3978 163.695 97.8405C165.365 97.4232 167.424 98.7922 168.38 99.4975C169.53 100.346 170.633 101.818 172.117 104.043C172.353 104.398 172.595 104.765 172.845 105.144C174.491 107.644 183.313 115.56 183.553 117.196C184.45 123.315 182.869 130.917 179.621 136.044Z" fill="#EAE6E1"/>
<path fill-rule="evenodd" clip-rule="evenodd" d="M124.596 213.012C110.567 213.012 97.3131 209.749 85.5399 203.944L87.3604 189.87L87.3578 189.702C87.2816 184.778 86.0239 176.929 83.6645 168.352C81.2986 159.75 77.7787 150.246 73.0871 142.036C69.0474 134.966 70.901 127.21 75.1544 119.27C77.2626 115.335 79.8808 111.508 82.4555 107.882C82.9375 107.203 83.4203 106.528 83.8987 105.859C85.9356 103.012 87.8911 100.278 89.3538 97.8405C92.4881 92.6166 93.7525 88.7612 94.7969 85.1698C94.9071 84.7908 95.0144 84.4169 95.1206 84.0465C96.0069 80.9572 96.8256 78.1036 98.7317 74.4445C103.533 65.2267 110.406 55.6104 116.948 47.979C120.216 44.1668 123.373 40.8839 126.115 38.413C127.054 37.5665 127.92 36.8379 128.706 36.2249C129.552 36.2636 130.395 36.3141 131.234 36.3763C176.976 39.7679 213.037 77.9607 213.037 124.572C213.037 173.416 173.44 213.012 124.596 213.012ZM94.3545 124.829C90.4716 89.8831 116.98 68.3573 130.587 61.9539C137.865 58.529 145.462 59.215 151.062 60.6406C153.883 61.3586 156.262 62.2799 157.94 63.0226C158.78 63.3947 159.449 63.7241 159.915 63.9642C160.148 64.0843 160.33 64.1823 160.457 64.2523L160.608 64.3357L160.723 64.3947C160.831 64.4503 160.988 64.5316 161.189 64.6382C161.592 64.8515 162.174 65.1663 162.908 65.5797C164.374 66.4062 166.447 67.6283 168.894 69.2228C173.781 72.4069 180.201 77.0998 186.28 83.1197C198.38 95.1011 209.56 112.805 203.645 134.494C197.917 155.498 187.088 168.198 174.774 175.02C162.514 181.812 149.013 182.651 138.087 180.38C127.526 178.185 117.611 175.163 109.823 167.023C102.045 158.893 96.7078 146.009 94.3545 124.829Z" fill="#6F8267"/>
<path d="M79.4942 48.4798C91.9162 41.101 106.299 36.6775 121.675 36.1785C119.094 38.621 116.277 41.6091 113.414 44.9495C106.697 52.7846 99.6048 62.6931 94.6035 72.294C92.4711 76.3876 91.5329 79.6645 90.6459 82.763C90.5396 83.1342 90.434 83.5028 90.3273 83.87C89.3443 87.2505 88.2152 90.691 85.3624 95.4457C84.0059 97.7064 82.1937 100.241 80.1666 103.075C79.6759 103.761 79.1726 104.465 78.6601 105.187C76.0709 108.834 73.3069 112.862 71.0513 117.072C66.5771 125.424 63.7759 135.123 69.0457 144.345C73.4899 152.123 76.8802 161.238 79.1764 169.586C81.4506 177.854 82.6069 185.205 82.7006 189.61L81.1467 201.622C74.9569 198.124 69.2312 193.902 64.0843 189.071V154.828C64.0843 150.221 63.0128 144.08 61.9338 137.895L61.7225 136.683C60.5514 129.949 59.4295 123.171 59.4295 117.59C59.4295 115.2 60.2739 112.524 61.7608 109.585C63.2405 106.66 65.2629 103.652 67.4328 100.614C68.102 99.6772 68.791 98.73 69.4796 97.7832C70.9803 95.72 72.4796 93.6587 73.7705 91.7098C75.6458 88.8784 77.2947 85.9807 77.9791 83.2433C78.9544 79.3419 80.135 71.6211 80.4898 63.9784C80.6676 60.1485 80.6418 56.267 80.2597 52.8492C80.0911 51.341 79.847 49.859 79.4942 48.4798Z" fill="#CF881A"/>
<path d="M36.1557 124.572C36.1557 93.9747 51.6933 67.0066 75.3086 51.1274C75.4351 51.8166 75.544 52.5637 75.6338 53.3663C75.979 56.4546 76.0114 60.0719 75.84 63.7626C75.4966 71.1609 74.3498 78.5681 73.4633 82.1143C72.984 84.0317 71.7237 86.3705 69.8897 89.1394C68.6557 91.0026 67.2589 92.9225 65.7928 94.9379C65.0894 95.9048 64.3701 96.8936 63.645 97.9086C61.4511 100.98 59.2551 104.227 57.6073 107.484C55.9668 110.727 54.7747 114.161 54.7747 117.59C54.7747 123.645 55.9802 130.831 57.1365 137.48L57.3103 138.478C58.4249 144.876 59.4295 150.642 59.4295 154.828V184.365C44.9748 168.62 36.1557 147.624 36.1557 124.572Z" fill="#758FA1"/>
<path fill-rule="evenodd" clip-rule="evenodd" d="M130.587 61.9539C116.98 68.3573 90.4716 89.8831 94.3545 124.829C96.7078 146.009 102.045 158.893 109.823 167.023C117.611 175.163 127.526 178.185 138.087 180.38C149.013 182.651 162.514 181.812 174.774 175.02C187.088 168.198 197.917 155.498 203.645 134.494C209.56 112.805 198.38 95.1011 186.28 83.1197C180.201 77.0998 173.781 72.4069 168.894 69.2228C166.447 67.6283 164.374 66.4062 162.908 65.5797C162.174 65.1663 161.592 64.8515 161.189 64.6382C160.988 64.5316 160.831 64.4503 160.723 64.3947L160.608 64.3357L160.457 64.2523C160.33 64.1823 160.148 64.0843 159.915 63.9642C159.449 63.7241 158.78 63.3947 157.94 63.0226C156.262 62.2799 153.883 61.3586 151.062 60.6406C145.462 59.215 137.865 58.529 130.587 61.9539ZM172.038 89.1922L171.825 88.9793C169.954 87.108 163.17 82.7293 152.706 82.6792C148.18 83.4217 141.494 86.3077 136.353 92.6406C131.199 98.9889 127.435 109.004 129.235 124.3C132.827 154.829 151.426 161.81 159.507 161.81C166.273 161.81 182.727 156.397 189.866 133.197C196.851 110.496 181.179 94.5244 172.298 89.3439L172.038 89.1922Z" fill="#DAA796"/>
</svg>
